<?xml version="1.0" standalone="no"?>
<!DOCTYPE svg PUBLIC "-//W3C//DTD SVG 20010904//EN"
 "http://www.w3.org/TR/2001/REC-SVG-20010904/DTD/svg10.dtd">
<svg version="1.0" xmlns="http://www.w3.org/2000/svg"
 width="1024.000000pt" height="1024.000000pt" viewBox="0 0 1024.000000 1024.000000"
 preserveAspectRatio="xMidYMid meet">
<metadata>
Created by potrace 1.16, written by Peter Selinger 2001-2019
</metadata>
<g transform="translate(0.000000,1024.000000) scale(0.100000,-0.100000)"
fill="#000000" stroke="none">
<path d="M5150 8904 c-19 -9 -123 -47 -230 -84 -107 -38 -255 -91 -327 -119
-73 -28 -193 -74 -265 -102 -73 -28 -155 -59 -183 -69 -66 -23 -348 -134 -552
-217 -90 -36 -168 -72 -174 -79 -15 -19 31 -45 139 -78 48 -15 141 -45 207
-67 66 -23 167 -54 225 -71 58 -17 142 -41 188 -55 l82 -24 0 -194 0 -194 83
31 c248 92 385 90 673 -7 89 -30 173 -55 187 -55 14 0 66 15 115 34 147 56
216 75 321 85 122 13 221 2 360 -39 55 -17 105 -30 110 -30 7 0 12 70 13 187
l3 187 135 43 c74 24 141 43 148 43 8 0 12 -17 12 -54 0 -62 -7 -86 -24 -86
-14 0 -59 -46 -74 -76 -7 -12 -10 -94 -10 -210 1 -106 -4 -233 -12 -289 -7
-55 -13 -109 -14 -120 -1 -19 6 -20 182 -23 172 -2 183 -1 178 15 -3 10 -12
107 -21 217 -13 156 -14 204 -5 227 7 16 11 59 9 101 -5 80 -30 131 -75 148
-23 9 -24 14 -24 97 l0 88 166 55 c194 64 248 88 252 113 4 20 -27 35 -255
123 -146 55 -153 59 -153 85 0 34 -38 66 -88 75 -29 6 -39 3 -54 -15 l-18 -23
-100 36 c-56 20 -138 52 -183 71 -45 19 -181 71 -302 115 -121 45 -249 92
-285 107 -61 23 -317 113 -323 113 -1 -1 -18 -8 -37 -16z m194 -163 c77 -27
209 -75 291 -106 83 -31 191 -72 240 -90 50 -18 149 -58 220 -88 72 -30 174
-69 228 -86 94 -32 97 -33 97 -63 0 -24 -3 -28 -13 -20 -19 16 -399 155 -917
337 -170 60 -285 95 -300 92 -60 -11 -1134 -397 -1255 -451 -35 -15 -195 -62
-242 -70 -18 -3 -35 -1 -38 4 -7 12 47 39 160 80 50 18 128 47 175 66 238 93
1021 389 1145 432 48 17 60 15 209 -37z m-901 -803 l2 -196 -32 -10 -33 -10 0
199 c0 198 0 200 23 209 12 5 25 8 30 7 4 -1 8 -91 10 -199z m2044 -405 c-6
-21 -11 -89 -12 -151 l0 -112 -39 0 -38 0 6 68 c3 37 8 104 12 150 l6 82 38 0
38 0 -11 -37z"/>
<path d="M2755 8566 c-90 -29 -162 -91 -198 -172 -18 -39 -21 -41 -65 -42
-123 -2 -210 -91 -220 -223 -5 -67 12 -110 64 -160 l35 -34 392 -3 c216 -1
402 0 415 3 38 9 110 83 128 131 21 54 15 119 -15 167 -18 30 -47 49 -130 86
-7 4 -23 31 -34 61 -53 143 -229 231 -372 186z m149 -100 c43 -18 103 -71 123
-110 9 -16 19 -53 22 -81 l6 -50 52 3 c45 3 55 0 84 -26 26 -23 33 -37 33 -67
0 -31 -7 -44 -42 -76 -35 -34 -48 -39 -89 -40 -26 0 -187 -2 -356 -4 l-308 -2
-30 24 c-25 21 -29 32 -29 74 0 58 18 99 54 123 32 20 88 21 128 0 38 -20 46
-12 69 61 9 31 27 71 40 89 54 79 162 116 243 82z"/>
<path d="M7060 7951 c-93 -50 -157 -154 -167 -272 l-6 -69 -42 0 c-63 0 -69
-12 -62 -133 8 -152 23 -186 127 -288 49 -48 107 -95 129 -105 l41 -18 1 -105
c1 -195 16 -576 24 -593 10 -25 20 -22 36 10 11 21 15 99 17 362 l4 335 48 23
c66 31 149 115 184 187 27 55 30 71 34 185 l4 125 -42 85 c-77 154 -135 226
-212 266 -56 28 -72 29 -118 5z m103 -100 c87 -64 146 -184 126 -255 -11 -39
-33 -64 -95 -107 -45 -30 -46 -31 -39 -8 4 13 8 29 9 34 0 6 5 13 11 17 12 9
-39 28 -73 27 -27 0 -77 -17 -56 -18 7 -1 14 -11 17 -23 2 -13 8 -31 12 -41 7
-18 6 -18 -31 1 -21 11 -49 34 -62 51 -21 29 -23 39 -17 104 4 40 17 94 30
122 23 51 89 135 106 135 6 0 33 -17 62 -39z m-183 -421 l90 -89 0 -81 c0 -44
-4 -80 -9 -80 -14 0 -103 73 -134 109 -14 18 -33 55 -42 83 -17 57 -20 148 -5
148 5 0 50 -40 100 -90z m367 -5 c-3 -35 -15 -82 -26 -103 -22 -43 -129 -144
-146 -139 -5 2 -11 38 -13 81 -3 74 -2 78 25 99 15 12 54 46 85 74 32 29 63
53 69 53 9 0 10 -19 6 -65z"/>
<path d="M3243 7781 c-151 -52 -250 -175 -269 -334 -13 -110 36 -236 137 -352
34 -39 94 -110 133 -160 106 -131 93 -128 170 -43 194 216 289 362 304 464 19
126 -24 251 -114 333 -108 99 -242 133 -361 92z m222 -106 c67 -28 125 -117
145 -226 8 -42 8 -56 -2 -64 -7 -5 -13 -30 -13 -55 0 -55 -41 -125 -91 -160
-37 -25 -124 -40 -124 -21 0 6 -18 11 -45 11 -29 0 -64 9 -98 26 -35 18 -47
21 -38 10 7 -9 20 -16 27 -16 21 0 17 -18 -6 -25 -47 -15 -100 55 -140 182
-20 65 -22 79 -11 130 21 108 79 175 182 213 59 21 157 19 214 -5z"/>
<path d="M3281 7507 c-14 -6 -34 -27 -45 -46 l-19 -34 24 -45 c27 -52 100
-104 138 -100 38 5 83 69 88 125 4 36 1 52 -10 62 -19 15 -57 6 -57 -14 0 -20
-47 -71 -56 -62 -15 15 -8 90 10 102 33 25 -28 35 -73 12z"/>
<path d="M3894 7780 c-45 -29 -60 -70 -45 -120 14 -49 44 -70 96 -70 61 0 105
45 105 108 0 44 -14 68 -50 87 -39 20 -69 19 -106 -5z"/>
<path d="M2611 7603 c-24 -38 -28 -51 -19 -68 21 -39 60 -85 73 -85 13 0 65
90 65 112 0 25 -51 88 -70 88 -13 0 -30 -17 -49 -47z"/>
<path d="M7741 7622 c-17 -16 -33 -41 -37 -56 -13 -53 41 -126 93 -126 29 0
80 50 89 86 13 50 -29 109 -84 120 -26 5 -36 1 -61 -24z"/>
<path d="M4480 7360 c-102 -4 -197 -11 -212 -15 l-28 -7 0 -114 0 -114 -36
-15 c-122 -51 -323 -195 -475 -342 -241 -233 -384 -444 -504 -743 l-42 -105
-169 -5 -169 -5 -6 -120 c-4 -66 -7 -173 -8 -239 l-1 -119 -93 5 c-65 4 -101
10 -120 22 -36 24 -69 96 -65 143 3 34 6 38 43 49 l40 11 3 238 2 238 -25 43
c-40 68 -108 81 -163 30 -49 -44 -52 -60 -52 -305 0 -226 0 -230 22 -245 12
-9 30 -16 40 -16 15 0 18 -9 18 -63 0 -85 29 -144 88 -175 35 -20 64 -25 155
-30 l112 -7 3 -84 c2 -46 -1 -88 -5 -92 -5 -5 -112 -5 -238 -1 -259 9 -278 14
-355 94 -66 67 -68 86 -71 518 -2 278 -6 383 -14 390 -7 6 -24 9 -38 8 -20 -2
-27 -9 -31 -33 -10 -50 4 -705 16 -765 23 -118 80 -195 182 -245 71 -35 150
-44 379 -45 l177 0 0 -95 0 -95 -167 0 c-149 0 -173 -3 -213 -21 l-45 -21 55
-15 c46 -13 73 -13 166 -4 154 15 191 14 198 -5 3 -9 6 -56 6 -106 l0 -91 158
8 c86 3 169 4 183 0 21 -5 29 -17 43 -63 46 -146 218 -427 372 -605 153 -177
405 -370 641 -490 150 -76 366 -151 546 -189 148 -32 159 -32 407 -33 272 0
333 7 541 60 211 54 371 122 580 247 l127 76 5 -72 c4 -39 5 -133 4 -210 -2
-117 -5 -140 -20 -151 -9 -7 -17 -19 -17 -27 0 -21 60 -138 71 -138 5 0 14 20
20 45 6 25 15 48 20 51 13 8 10 57 -5 76 -10 13 -13 75 -15 243 l-2 226 38 32
c167 141 313 306 438 493 79 119 204 349 217 402 6 21 10 22 133 22 l126 0
-21 -30 c-11 -16 -25 -32 -31 -35 -5 -4 -18 -24 -30 -46 l-20 -41 25 -23 c30
-28 32 -44 10 -91 -20 -41 -59 -64 -109 -64 l-35 0 0 -93 c0 -104 6 -117 58
-117 74 0 117 -90 75 -160 -16 -28 -16 -30 9 -62 14 -19 45 -47 68 -63 35 -24
45 -27 61 -17 28 18 69 14 119 -12 42 -22 46 -28 55 -77 l10 -54 50 -3 c28 -2
78 -1 113 3 l62 7 0 44 c0 42 3 46 48 74 58 37 76 37 119 4 l35 -26 45 43 c24
24 58 60 74 81 l29 36 -25 30 c-29 35 -31 49 -10 99 20 46 29 53 82 53 40 0
42 2 48 33 3 17 5 68 3 112 l-3 80 -35 3 c-63 5 -79 12 -95 42 -21 41 -19 67
10 96 14 14 25 29 25 34 0 6 -32 46 -71 91 l-71 81 -32 -31 c-18 -17 -41 -31
-53 -31 -30 0 -117 61 -121 85 -10 69 -3 65 -110 65 -109 0 -122 -6 -122 -56
0 -37 -8 -44 -76 -74 l-52 -22 -35 23 c-33 22 -34 25 -20 45 11 18 15 65 15
222 l1 200 271 4 c252 3 274 5 318 25 70 32 141 103 174 176 l29 62 3 380 c2
209 6 396 9 417 4 30 2 37 -16 43 -49 15 -89 -23 -68 -65 9 -17 10 -47 5 -95
-4 -38 -7 -198 -7 -355 -1 -175 -5 -300 -12 -325 -17 -60 -64 -121 -117 -152
-43 -26 -58 -28 -192 -35 -80 -4 -202 -4 -272 -1 l-128 6 0 73 c0 106 -2 104
99 104 94 0 141 15 199 65 64 54 92 147 92 311 l0 91 39 7 c50 8 81 34 84 69
l2 29 -135 -1 c-96 0 -144 3 -165 13 -27 13 -14 14 137 15 l168 1 6 24 c3 14
3 34 -1 45 -6 20 -13 21 -196 21 l-189 0 0 -34 c0 -18 6 -39 14 -45 11 -9 12
-18 3 -40 -20 -55 38 -101 127 -101 l29 0 -7 -136 c-4 -75 -11 -146 -16 -159
-14 -38 -77 -93 -117 -104 -21 -6 -66 -11 -100 -11 -58 0 -63 2 -64 23 -1 12
-1 118 1 235 l2 212 -83 2 c-46 1 -119 2 -162 2 l-78 1 -33 85 c-98 249 -200
420 -365 612 -169 196 -332 320 -660 504 l-34 19 2 106 c2 94 0 107 -16 114
-10 4 -155 12 -323 17 -312 9 -405 4 -508 -28 -62 -18 -86 -18 -184 7 -99 24
-322 31 -608 19z m572 -120 c41 -12 72 -28 78 -40 6 -12 10 -197 10 -513 l0
-495 -62 20 c-84 26 -207 31 -483 20 -126 -4 -232 -7 -235 -4 -3 2 -5 231 -5
508 0 497 0 505 20 510 38 9 381 22 495 19 80 -3 136 -10 182 -25z m906 14
l42 -5 2 -485 c1 -266 2 -494 2 -506 l1 -23 -330 0 c-292 0 -334 -2 -369 -17
-21 -10 -42 -15 -47 -12 -5 3 -9 224 -9 509 l0 503 50 17 c28 9 90 20 138 23
96 8 453 5 520 -4z m182 -279 c7 -8 16 -13 20 -10 12 8 113 -50 234 -133 152
-105 366 -319 459 -459 65 -98 227 -422 227 -453 0 -13 -28 -15 -210 -12
l-210 4 0 -61 0 -61 -192 -2 c-304 -4 -358 -1 -470 26 -93 22 -270 82 -258 87
3 1 133 5 290 8 267 6 288 8 326 28 99 52 213 236 159 257 -9 3 -102 9 -206
13 l-189 6 0 141 c0 78 -3 252 -7 389 -6 247 -4 269 27 232z m-1895 -402 l-7
-363 -102 0 c-55 0 -138 -3 -183 -7 l-83 -6 0 -31 c1 -70 74 -180 149 -224 44
-26 47 -26 323 -33 153 -3 281 -9 284 -12 6 -6 -33 -18 -121 -37 -109 -24
-214 -51 -255 -65 -33 -12 -93 -15 -276 -15 l-234 0 0 60 0 60 -221 0 -221 0
6 28 c12 50 143 305 206 402 130 198 289 371 450 492 93 69 195 121 226 115
15 -3 30 3 41 16 17 18 18 18 22 1 2 -10 0 -182 -4 -381z m716 -469 c46 -49
64 -53 258 -54 102 -1 181 -6 181 -11 0 -5 -11 -9 -24 -9 -13 0 -37 -7 -52
-15 -28 -14 -24 -15 66 -15 65 0 90 -3 80 -10 -26 -17 -210 -17 -220 0 -5 9
-112 13 -396 16 -214 2 -472 6 -573 9 l-184 5 -36 32 c-20 17 -40 37 -44 45
-9 15 -47 14 448 22 204 4 393 8 421 9 43 2 54 -2 75 -24z m1397 8 l33 -7 -32
-32 c-17 -18 -48 -37 -68 -42 -40 -11 -538 -17 -548 -7 -4 3 4 6 16 6 12 0 19
4 16 10 -4 6 -65 10 -148 11 -78 1 -168 4 -200 8 l-58 6 28 30 28 30 450 -3
c247 -2 464 -6 483 -10z m-3789 -309 l1 -93 -50 0 -50 0 0 114 0 115 43 3 c51
4 54 -3 56 -139z m2976 23 c67 -14 203 -53 340 -97 198 -63 227 -66 546 -54
l216 8 4 -24 c2 -13 3 -218 1 -456 l-3 -432 -52 -11 c-109 -24 -141 -24 -186
0 -96 49 -461 301 -461 318 0 5 19 14 43 21 62 19 118 54 165 105 63 68 55 83
-21 45 -64 -32 -133 -49 -232 -55 -81 -6 -95 -4 -134 16 -94 47 -225 146 -291
218 l-68 75 -168 -12 c-199 -15 -258 -26 -299 -56 -46 -35 -129 -74 -192 -90
-131 -34 -206 -9 -258 87 -14 25 -13 29 8 52 24 28 248 166 355 220 222 112
505 162 687 122z m-686 0 c-2 -2 -51 -27 -108 -56 -144 -74 -337 -204 -356
-240 -19 -36 -19 -74 -1 -133 19 -64 50 -104 112 -143 64 -41 133 -51 230 -35
66 12 222 77 254 106 29 26 101 45 216 56 l114 12 42 -28 c111 -72 527 -371
798 -572 135 -100 185 -144 209 -181 31 -49 43 -88 19 -64 -20 20 -28 13 -17
-15 6 -15 7 -24 3 -21 -3 4 -14 -2 -23 -14 l-17 -20 -44 22 c-50 25 -138 88
-158 113 -8 9 -48 37 -90 64 -42 26 -119 78 -170 115 -52 37 -119 82 -150 100
-31 17 -58 35 -60 40 -2 4 -8 8 -13 8 -5 0 -4 -9 3 -19 7 -11 15 -18 19 -16 3
3 20 -11 38 -30 17 -19 36 -35 41 -35 5 0 7 -6 4 -13 -2 -7 8 -17 26 -24 16
-6 30 -18 30 -27 0 -10 -27 5 -82 46 -46 34 -85 65 -88 68 -3 4 -40 30 -84 59
-43 29 -96 69 -116 88 l-38 34 -36 -37 -36 -37 27 -30 c16 -16 51 -45 78 -65
28 -20 120 -88 207 -152 86 -63 201 -148 256 -188 55 -40 114 -92 133 -115 18
-23 26 -36 16 -28 -18 14 -52 8 -42 -8 9 -16 -29 -80 -48 -81 -29 0 -107 45
-177 101 -58 47 -281 202 -320 223 -8 4 21 -26 65 -67 44 -41 77 -78 74 -81
-3 -3 -62 33 -130 80 -68 48 -164 113 -212 145 l-89 59 -34 -26 c-19 -15 -34
-32 -34 -38 0 -7 45 -43 100 -80 55 -37 135 -96 178 -130 42 -34 113 -89 157
-121 99 -75 247 -200 258 -221 7 -11 3 -17 -13 -21 -11 -3 -27 -18 -36 -34 -8
-16 -19 -29 -25 -29 -14 0 -60 24 -115 62 -39 26 -50 29 -65 20 -15 -10 -19
-9 -19 1 0 8 -10 19 -22 25 -18 8 -19 11 -6 11 27 1 -21 44 -127 114 -49 33
-114 83 -143 110 -36 33 -56 46 -61 38 -5 -8 -14 -4 -30 13 -13 13 -46 34 -74
46 -43 19 -62 21 -122 16 -68 -6 -72 -5 -82 17 -17 38 -85 107 -131 134 -55
33 -113 28 -206 -15 -37 -18 -74 -28 -83 -25 -12 5 -15 2 -10 -9 3 -10 -5 -26
-22 -42 l-28 -26 -19 36 c-14 28 -16 38 -6 41 6 3 10 9 6 14 -3 5 5 9 17 9 39
0 -44 53 -218 139 -166 83 -300 131 -369 134 l-41 2 -6 230 c-4 126 -7 289 -7
360 l0 131 228 0 c250 1 217 -4 572 87 118 31 229 57 245 60 42 6 89 8 84 3z
m-1534 -66 l0 -35 -192 -3 -193 -2 0 34 c0 44 0 44 215 42 l170 -1 0 -35z
m4068 34 c30 -5 37 -11 37 -29 0 -49 -3 -50 -128 -49 -64 0 -145 1 -179 2
l-63 2 0 40 0 40 148 0 c81 0 164 -3 185 -6z m-3770 -446 c-2 -244 -6 -484 -9
-535 l-6 -92 -34 -7 c-19 -3 -59 -3 -89 1 l-55 6 0 529 c0 413 3 529 13 533 6
3 50 6 97 6 l85 1 -2 -442z m3334 -3 c2 -242 2 -482 -2 -533 l-7 -93 -86 3
-87 3 -3 533 -3 533 91 -3 92 -3 5 -440z m893 -675 c0 -23 7 -35 33 -50 17
-11 39 -20 47 -20 9 0 40 -15 70 -34 l54 -34 38 21 37 22 23 -22 c21 -22 21
-23 5 -58 -22 -47 -22 -48 16 -140 32 -78 33 -80 75 -88 42 -8 43 -9 40 -45
-3 -34 -5 -37 -39 -40 -41 -3 -59 -28 -95 -131 -21 -59 -22 -68 -9 -88 21 -31
19 -49 -7 -67 -18 -13 -24 -13 -42 -1 -29 21 -49 19 -108 -11 -29 -15 -70 -32
-93 -38 -38 -11 -40 -14 -43 -54 l-3 -42 -50 0 c-48 0 -49 1 -49 29 0 37 -9
61 -23 61 -6 0 -43 16 -84 36 -70 35 -74 36 -98 20 -32 -21 -48 -20 -76 3 -21
17 -22 22 -11 40 17 30 15 62 -10 128 -29 78 -66 115 -107 107 -31 -6 -31 -6
-31 34 0 43 10 52 61 52 32 0 29 -4 75 114 29 74 30 64 -13 147 -2 3 8 18 22
33 l25 27 31 -22 c29 -20 35 -21 63 -9 17 7 58 22 91 34 82 30 85 32 85 77 l0
39 50 0 c49 0 50 -1 50 -30z m-4039 -29 c28 -11 61 -26 74 -35 22 -15 23 -16
8 -58 -19 -56 -5 -123 39 -184 43 -61 88 -86 162 -93 l61 -6 6 -55 c7 -68 27
-107 75 -150 54 -47 97 -62 166 -58 l60 3 18 -49 c23 -59 42 -80 99 -114 38
-22 55 -25 120 -24 l76 2 25 -47 c14 -25 45 -60 68 -77 40 -28 51 -31 115 -31
83 1 142 23 195 74 34 33 36 33 85 -3 43 -32 146 -29 212 6 62 32 88 60 115
120 20 46 21 46 54 37 40 -11 109 2 167 32 45 23 94 85 111 141 11 37 13 38
57 38 72 0 120 18 169 64 33 31 47 55 57 91 l12 50 74 -3 c65 -3 81 0 129 25
43 22 61 39 83 78 25 45 27 57 24 132 l-3 81 35 6 c20 3 51 8 68 12 29 6 34 3
43 -20 9 -26 11 -26 110 -26 55 0 100 -3 100 -6 0 -4 -23 -50 -51 -104 -80
-153 -202 -300 -394 -476 -207 -190 -421 -304 -750 -403 -120 -36 -190 -47
-396 -61 -188 -13 -316 -3 -497 41 -152 36 -418 131 -487 173 -151 93 -290
201 -414 321 -174 169 -263 287 -352 467 -10 20 -24 38 -31 41 -7 3 19 6 57 7
107 2 148 12 160 38 12 27 21 27 86 3z m386 -10 c79 -36 99 -110 48 -177 -60
-79 -152 -99 -205 -45 -70 69 -45 172 52 220 52 25 52 25 105 2z m484 -44 c58
-38 88 -129 57 -169 -38 -49 -258 -272 -284 -289 -37 -23 -72 -24 -120 -4 -40
17 -64 62 -64 124 0 51 56 126 182 246 125 119 165 135 229 92z m335 -166 c33
-20 64 -75 64 -113 0 -13 -8 -38 -17 -55 -19 -34 -275 -283 -311 -302 -11 -6
-43 -11 -70 -11 -98 0 -132 81 -73 171 17 24 85 102 153 173 150 158 187 178
254 137z m235 -270 c57 -57 32 -131 -86 -253 -93 -95 -128 -118 -180 -118 -50
0 -80 27 -88 80 -6 46 2 61 87 150 165 175 209 198 267 141z"/>
<path d="M4493 7142 c-21 -5 -30 -11 -25 -18 5 -8 85 -14 252 -19 135 -4 264
-10 288 -15 36 -6 42 -5 42 10 0 38 -22 42 -277 45 -137 2 -263 1 -280 -3z"/>
<path d="M4470 7002 c0 -27 22 -29 295 -37 116 -3 227 -8 248 -11 34 -6 37 -4
37 19 0 17 -7 27 -22 32 -13 3 -143 9 -290 12 -267 6 -268 6 -268 -15z"/>
<path d="M4508 6903 c-37 -4 -53 -28 -25 -38 6 -2 137 -6 290 -7 212 -2 277 0
277 9 0 7 -9 17 -20 23 -20 11 -454 22 -522 13z"/>
<path d="M4477 6783 c-4 -3 -7 -14 -7 -23 0 -23 77 -29 365 -31 l220 -1 0 23
c0 18 -7 25 -30 30 -40 9 -540 11 -548 2z"/>
<path d="M4472 6643 c3 -16 27 -18 278 -24 152 -3 281 -8 288 -13 15 -9 15 -5
2 28 l-10 26 -280 0 c-263 0 -281 -1 -278 -17z"/>
<path d="M4470 6522 c0 -18 10 -20 108 -26 202 -11 475 -11 478 -1 2 6 -1 17
-6 25 -8 13 -54 15 -295 18 -276 3 -285 2 -285 -16z"/>
<path d="M4470 6401 c0 -26 41 -30 343 -29 223 1 248 2 245 17 -5 23 -72 29
-350 30 -228 1 -238 0 -238 -18z"/>
<path d="M5412 7140 c-60 -9 -65 -12 -57 -31 4 -12 50 -13 268 -11 144 2 265
6 269 10 4 4 3 14 -2 22 -8 12 -45 15 -217 17 -114 0 -232 -2 -261 -7z"/>
<path d="M5392 7013 c-36 -5 -53 -30 -31 -44 8 -5 132 -9 275 -9 272 0 287 2
263 41 -7 11 -53 14 -241 15 -128 1 -248 -1 -266 -3z"/>
<path d="M5368 6893 c-10 -2 -18 -11 -18 -19 0 -12 41 -14 259 -14 143 0 266
3 275 6 9 3 16 12 16 20 0 12 -44 14 -257 13 -142 -1 -266 -3 -275 -6z"/>
<path d="M5372 6783 c-17 -3 -22 -10 -20 -25 3 -20 10 -21 203 -25 110 -2 233
-1 273 2 68 6 73 8 70 28 -3 22 -5 22 -253 23 -137 1 -260 -1 -273 -3z"/>
<path d="M5357 6653 c-4 -3 -7 -12 -7 -20 0 -10 50 -13 258 -13 268 0 302 3
302 26 0 12 -47 14 -273 14 -151 0 -277 -3 -280 -7z"/>
<path d="M5390 6543 c-31 -6 -50 -21 -50 -39 0 -12 49 -14 280 -14 246 0 281
2 287 16 13 35 -12 39 -255 40 -130 1 -248 0 -262 -3z"/>
<path d="M5368 6413 c-16 -2 -28 -11 -28 -19 0 -12 41 -14 283 -12 243 3 282
5 282 18 0 13 -35 15 -255 16 -140 1 -267 -1 -282 -3z"/>
<path d="M7729 4506 c-31 -6 -73 -24 -93 -39 -41 -32 -94 -105 -112 -157 -30
-82 -10 -187 51 -270 88 -119 238 -149 385 -75 86 44 133 121 138 230 5 94
-10 145 -62 208 -74 91 -188 130 -307 103z m167 -89 c40 -21 82 -70 107 -126
15 -34 18 -55 13 -94 -14 -105 -75 -166 -185 -187 -64 -12 -112 2 -162 47 -56
50 -79 100 -79 168 0 163 164 265 306 192z"/>
<path d="M7764 4320 c-66 -26 -84 -117 -36 -171 56 -62 166 -37 186 43 21 85
-68 161 -150 128z"/>
<path d="M2519 7280 c-212 -6 -225 -10 -215 -69 4 -20 11 -74 16 -121 l9 -85
-27 -20 c-14 -11 -39 -32 -54 -47 l-28 -26 0 -270 c0 -249 1 -272 19 -293 21
-26 -8 -25 380 -21 l263 2 34 34 34 34 0 254 c0 181 -4 260 -13 278 -7 14 -30
34 -51 44 l-39 19 7 118 c5 76 3 125 -3 138 -13 24 -63 42 -110 39 -20 -1
-120 -5 -222 -8z m187 -105 c4 -9 3 -40 0 -69 l-7 -54 -102 0 c-56 1 -112 -2
-124 -6 -22 -7 -23 -5 -23 63 0 82 -8 78 148 80 83 1 104 -2 108 -14z m29
-227 c70 -37 126 -88 127 -118 3 -56 -3 -111 -11 -106 -5 3 -14 -16 -21 -41
-17 -70 -49 -138 -75 -163 -12 -12 -49 -32 -81 -45 -33 -14 -53 -25 -46 -25 6
0 12 -4 12 -8 0 -12 -148 -32 -241 -32 -81 0 -87 1 -93 23 -3 12 -6 113 -6
225 0 228 -4 215 84 267 75 44 122 55 216 52 68 -3 95 -9 135 -29z"/>
<path d="M2558 6833 c-13 -3 -18 -15 -18 -43 0 -38 -1 -39 -28 -34 -35 7 -55
-14 -50 -53 3 -26 6 -28 39 -25 l36 3 6 -61 c4 -34 9 -65 11 -69 3 -4 21 -5
40 -3 l36 4 0 62 0 62 34 -4 c37 -4 47 8 39 51 -5 23 -10 27 -39 27 -32 0 -34
2 -34 35 0 24 -6 37 -19 45 -20 10 -25 11 -53 3z"/>
<path d="M7755 7226 c-216 -57 -351 -211 -371 -424 -16 -172 80 -363 222 -444
45 -25 54 -35 54 -58 0 -15 3 -48 6 -74 6 -38 4 -46 -10 -46 -23 0 -23 -87 1
-92 9 -2 91 1 182 5 110 6 172 5 182 -2 13 -7 21 -5 33 8 20 22 20 42 1 67 -9
12 -14 43 -15 86 l0 67 58 37 c120 76 169 142 212 283 34 110 26 215 -23 314
-55 112 -169 217 -280 259 -64 24 -187 32 -252 14z m187 -132 c107 -27 196
-101 222 -183 32 -102 34 -192 6 -285 -16 -51 -30 -72 -70 -110 -78 -73 -126
-91 -241 -91 -90 0 -99 2 -171 38 -131 64 -188 157 -188 306 0 70 4 86 36 149
75 151 235 221 406 176z"/>
<path d="M8120 6820 c0 -5 -21 -58 -47 -117 -56 -127 -94 -170 -195 -218 -83
-40 -73 -51 40 -47 35 2 45 6 49 22 3 11 11 20 19 20 7 0 19 8 26 18 7 10 21
21 31 25 9 3 17 13 17 22 0 8 6 15 13 15 16 0 57 42 57 58 0 6 9 29 21 52 32
61 35 110 9 138 -22 23 -40 29 -40 12z"/>
<path d="M6746 6969 c-14 -17 -26 -34 -26 -39 0 -14 72 -90 86 -90 7 0 27 18
44 40 l32 41 -26 39 c-34 52 -72 55 -110 9z"/>
<path d="M3241 6747 c-68 -34 -85 -118 -34 -168 42 -43 86 -53 118 -27 63 49
68 120 14 176 -33 34 -59 39 -98 19z"/>
<path d="M7304 6298 c-26 -12 -44 -48 -44 -88 0 -21 8 -33 34 -49 18 -12 43
-21 56 -21 28 0 80 55 80 84 0 21 -24 64 -44 78 -15 11 -57 9 -82 -4z"/>
<path d="M8144 5011 c-30 -18 -64 -74 -64 -106 0 -29 30 -74 60 -90 62 -32
136 -10 164 49 21 45 20 74 -3 110 -38 57 -101 71 -157 37z"/>
<path d="M2154 4761 c-11 -5 -33 -23 -47 -41 -21 -25 -27 -42 -27 -82 0 -41 5
-54 29 -78 71 -72 182 -41 212 58 10 35 9 45 -7 73 -35 60 -108 92 -160 70z"/>
<path d="M2560 4543 c-49 -8 -126 -36 -183 -66 -68 -36 -176 -146 -212 -216
-87 -172 -86 -402 3 -565 38 -69 142 -168 221 -209 112 -59 199 -81 300 -74
178 11 322 96 426 253 62 93 78 146 83 279 4 115 3 125 -27 215 -18 52 -46
117 -63 143 -41 64 -140 151 -213 187 -96 48 -235 70 -335 53z m-71 -115 c-32
-60 -100 -158 -109 -158 -18 0 -90 40 -90 50 0 15 84 78 140 104 67 32 74 32
59 4z m129 -96 c2 -100 1 -112 -14 -112 -30 0 -144 22 -144 27 0 8 77 131 107
171 39 52 48 38 51 -86z m162 25 c21 -29 43 -64 49 -79 10 -27 9 -28 -42 -42
-29 -8 -63 -16 -77 -18 l-25 -3 -3 118 -3 119 31 -22 c17 -12 48 -45 70 -73z
m-460 -125 c25 -9 46 -17 48 -18 1 0 -4 -20 -13 -43 -8 -23 -18 -71 -21 -107
l-7 -64 -79 0 -80 0 6 38 c4 20 21 79 38 130 25 77 33 92 47 87 9 -4 36 -14
61 -23z m749 -34 c31 -64 64 -182 53 -192 -3 -3 -41 -6 -84 -6 l-78 0 0 43 c0
23 -7 71 -15 106 -9 35 -14 65 -13 66 11 9 85 44 95 45 6 0 25 -28 42 -62z
m-531 -32 c40 -6 73 -15 72 -19 0 -4 0 -38 0 -77 l0 -70 -106 0 -107 0 7 43
c17 109 29 148 45 141 9 -3 49 -11 89 -18z m342 -67 c12 -51 18 -95 13 -98 -4
-3 -54 -5 -110 -3 l-103 3 0 74 c0 69 2 75 23 79 12 2 49 10 82 19 33 8 63 15
67 16 3 0 16 -40 28 -90z m-546 -209 c4 -30 14 -79 23 -109 15 -52 15 -55 -3
-68 -11 -7 -31 -25 -46 -39 l-27 -25 -31 53 c-30 53 -62 141 -74 210 l-7 37
79 -2 80 -2 6 -55z m274 -20 l3 -75 -68 -17 c-37 -9 -75 -19 -84 -23 -13 -5
-19 6 -32 52 -8 32 -18 75 -21 95 -8 45 -3 47 114 45 l85 -2 3 -75z m282 64
c6 -7 -27 -165 -37 -175 -4 -4 -45 2 -90 14 l-83 20 0 76 0 76 102 -3 c57 -2
105 -6 108 -8z m235 -41 c-6 -45 -59 -165 -89 -206 -13 -16 -16 -16 -66 9 -38
19 -50 30 -47 42 8 28 37 145 42 175 5 27 6 27 86 27 l81 0 -7 -47z m-521
-195 c12 -96 15 -198 7 -198 -28 0 -138 165 -128 193 3 9 84 43 109 46 4 1 9
-18 12 -41z m184 11 c17 -6 32 -13 32 -16 0 -15 -67 -128 -98 -163 -30 -36
-37 -39 -44 -25 -5 9 -8 63 -6 121 l3 105 40 -6 c22 -4 55 -11 73 -16z"/>
<path d="M7038 3883 c-15 -4 -38 -57 -38 -89 0 -19 -36 -44 -64 -44 -15 0 -40
10 -56 21 l-29 22 -50 -38 c-28 -21 -52 -44 -55 -50 -2 -7 7 -38 22 -69 29
-65 26 -79 -26 -106 -55 -30 -62 -40 -62 -88 0 -41 5 -50 55 -103 30 -32 55
-66 55 -77 0 -10 -11 -41 -25 -67 -25 -46 -25 -48 -8 -68 57 -66 83 -78 117
-52 41 31 122 10 132 -34 3 -14 9 -39 13 -56 l7 -30 88 0 c97 0 100 2 111 72
10 65 65 83 130 43 l32 -20 47 41 c25 22 46 49 46 59 0 11 -11 40 -25 66 -30
56 -26 66 50 123 l55 42 0 55 c0 51 -2 56 -31 72 -84 46 -98 79 -59 137 11 17
20 37 20 46 0 23 -37 67 -72 85 -28 15 -31 14 -53 -6 -17 -16 -33 -21 -61 -18
-40 3 -42 5 -94 118 -5 11 -26 15 -81 17 -41 0 -82 -1 -91 -4z m86 -69 c9 -3
24 -22 33 -41 21 -46 115 -93 185 -93 l47 0 -15 -37 c-20 -47 -8 -91 41 -156
39 -51 38 -64 -9 -113 l-31 -32 -1 64 c-1 56 -5 69 -40 120 -51 73 -93 108
-160 129 -66 21 -96 15 -171 -34 -69 -45 -87 -64 -108 -114 -22 -54 -18 -105
13 -172 78 -164 246 -214 369 -111 35 29 33 29 84 -16 31 -29 22 -37 -38 -35
-50 2 -65 -2 -103 -28 -24 -17 -55 -46 -68 -65 -29 -43 -50 -44 -72 -5 -24 45
-109 85 -180 85 l-57 0 5 73 4 73 -50 63 c-51 63 -56 85 -22 96 27 9 49 38 70
93 l19 50 -24 32 c-31 42 -23 53 29 46 71 -11 84 -9 130 20 28 18 51 43 65 71
21 44 27 48 55 37z m84 -254 c93 -67 113 -188 44 -259 -46 -47 -74 -61 -122
-61 -94 0 -180 88 -180 185 0 62 20 93 89 136 61 39 114 39 169 -1z"/>
<path d="M7048 3484 c-43 -23 -38 -66 11 -115 32 -32 46 -39 77 -39 48 1 72
18 80 57 5 25 1 35 -23 58 -29 28 -82 55 -105 55 -7 -1 -25 -8 -40 -16z"/>
<path d="M3408 3690 c-23 -56 -42 -66 -108 -57 -55 7 -70 -13 -70 -94 0 -76
-4 -83 -53 -104 -33 -14 -37 -19 -37 -53 0 -59 10 -80 41 -91 35 -12 49 -44
49 -115 0 -66 9 -74 97 -88 66 -10 69 -12 98 -57 45 -69 70 -67 170 10 76 58
82 61 124 56 39 -4 48 -1 79 27 34 31 34 34 23 69 -16 47 -9 67 34 94 78 51
81 104 7 142 -60 31 -66 42 -52 100 11 46 10 53 -10 81 -24 34 -59 47 -88 31
-26 -14 -87 -3 -107 19 -9 10 -20 31 -24 46 -7 28 -10 29 -80 32 l-72 3 -21
-51z m126 -6 c11 -4 16 -19 16 -43 0 -61 6 -64 115 -59 l97 5 -6 -36 c-3 -20
-9 -59 -12 -88 l-7 -52 39 -9 c22 -6 52 -13 67 -16 44 -10 31 -38 -28 -57 -57
-19 -67 -40 -63 -124 l3 -50 -73 -9 c-40 -5 -76 -6 -80 -2 -4 4 17 30 46 57
89 83 103 149 53 248 -37 72 -90 121 -134 122 -72 2 -123 -3 -147 -16 -87 -45
-135 -186 -96 -280 8 -18 33 -54 55 -78 l41 -45 -43 -6 c-56 -9 -77 0 -77 31
0 77 -51 163 -96 163 -8 0 -14 10 -14 24 0 20 7 26 38 33 l37 9 10 79 10 79
72 13 c89 14 93 17 93 53 0 47 38 72 84 54z m47 -205 c21 -11 59 -87 59 -118
0 -31 -25 -76 -56 -100 -33 -26 -109 -28 -143 -5 -50 36 -65 125 -31 182 34
56 110 74 171 41z"/>
<path d="M7792 3513 c-7 -3 -19 -18 -28 -35 -12 -24 -18 -27 -30 -17 -14 11
-89 8 -102 -6 -13 -13 25 -26 68 -22 41 3 47 1 65 -27 30 -45 69 -47 95 -4 27
44 25 59 -8 91 -28 27 -36 30 -60 20z"/>
<path d="M4163 3271 c-124 -57 -78 -241 60 -241 61 0 117 64 117 132 0 45 -34
96 -75 114 -44 18 -51 18 -102 -5z"/>
<path d="M6079 3252 c-26 -23 -31 -35 -31 -75 -1 -39 4 -53 27 -77 16 -16 43
-32 61 -36 82 -15 152 83 113 159 -32 63 -116 77 -170 29z"/>
<path d="M5130 3085 c-32 -34 -31 -79 3 -113 22 -22 31 -25 53 -17 56 21 68
91 24 135 -27 27 -52 25 -80 -5z"/>
<path d="M7851 2844 c-15 -77 -14 -114 3 -114 9 0 16 19 21 58 l8 57 15 -53
c11 -39 19 -52 31 -50 9 2 17 12 19 23 7 36 22 40 28 7 4 -18 13 -32 20 -32
22 0 20 136 -2 144 -28 11 -34 7 -34 -23 0 -34 -24 -59 -37 -39 -4 7 -12 26
-18 43 -18 52 -41 43 -54 -21z"/>
<path d="M6354 2876 c-107 -48 -91 -188 23 -203 56 -7 86 1 128 38 53 47 47
105 -14 148 -38 27 -98 35 -137 17z"/>
<path d="M6847 2866 c-51 -19 -104 -61 -124 -99 -9 -18 -18 -65 -21 -109 l-5
-78 -53 0 -54 0 0 -62 c0 -102 4 -108 62 -108 l50 0 -7 -268 -7 -267 98 0 c78
0 100 3 106 15 4 8 7 131 7 273 l1 257 80 0 80 0 0 81 0 80 -82 -2 -83 -2 3
34 c7 86 22 99 118 99 51 0 56 2 74 33 12 18 20 50 20 75 0 36 -4 44 -26 52
-37 14 -193 11 -237 -4z"/>
<path d="M5526 2853 c-7 -8 1 -789 10 -908 l5 -70 90 0 c49 0 90 0 91 0 1 0 4
105 7 234 l6 233 35 29 c61 52 144 50 184 -4 19 -26 21 -46 27 -260 4 -128 7
-232 8 -232 0 0 44 1 97 3 l97 3 -5 258 c-4 257 -4 258 -31 314 -54 109 -151
159 -267 136 -33 -6 -81 -25 -105 -40 -25 -16 -47 -29 -48 -29 -1 0 -1 76 1
170 l3 170 -99 0 c-54 0 -102 -3 -106 -7z"/>
<path d="M2570 2753 c0 -22 3 -68 7 -102 l6 -63 134 4 133 3 0 -265 c0 -146 3
-309 7 -362 l6 -98 46 0 c25 0 70 3 99 6 l52 7 0 358 0 359 130 0 130 0 0 90
0 90 -208 0 c-115 0 -284 3 -375 7 l-167 6 0 -40z"/>
<path d="M3582 2589 c-162 -27 -266 -139 -287 -310 -13 -105 38 -243 118 -316
57 -52 90 -69 174 -89 117 -27 220 -2 331 81 l50 38 -48 38 c-27 21 -56 48
-65 61 -15 21 -17 22 -26 5 -18 -32 -90 -60 -154 -61 -75 -1 -121 23 -153 82
l-23 42 245 0 246 0 0 33 c-1 62 -20 170 -39 213 -59 133 -213 209 -369 183z
m149 -176 c30 -18 55 -57 61 -93 l3 -25 -145 4 c-80 2 -146 4 -148 6 -9 9 15
60 40 85 50 50 127 59 189 23z"/>
<path d="M5095 2589 c-126 -26 -217 -95 -273 -209 -24 -49 -27 -66 -27 -155 1
-88 4 -107 28 -157 74 -152 273 -233 444 -180 56 18 183 94 183 110 0 4 -27
34 -60 67 -52 52 -63 58 -78 47 -76 -55 -130 -71 -192 -57 -46 10 -104 72
-119 128 -26 92 21 191 105 223 40 15 53 16 91 6 25 -7 64 -26 87 -41 l42 -29
57 63 57 64 -38 31 c-91 76 -206 109 -307 89z"/>
<path d="M6307 2490 c3 -58 8 -222 11 -364 l7 -259 94 2 c52 1 99 5 103 7 12
8 10 366 -3 464 -6 47 -14 121 -18 165 l-6 80 -97 5 -96 5 5 -105z"/>
<path d="M4272 2576 c-42 -11 -175 -61 -190 -72 -2 -1 20 -37 48 -79 l52 -77
21 20 c55 50 148 73 210 53 45 -15 87 -63 87 -100 l0 -27 -104 4 c-119 5 -183
-10 -259 -58 -136 -86 -107 -291 50 -357 43 -18 150 -17 204 2 24 9 60 29 80
45 l37 29 6 -33 c10 -53 25 -59 108 -49 l73 8 -3 30 c-1 17 -6 134 -11 260 -9
262 -16 292 -84 350 -72 61 -199 81 -325 51z m217 -415 c22 -14 5 -76 -30
-105 -38 -32 -67 -40 -127 -33 -53 6 -82 33 -82 77 0 49 43 68 155 69 39 0 76
-3 84 -8z"/>
<path d="M7118 2580 l-36 -5 63 -155 c150 -372 173 -427 189 -457 27 -54 21
-88 -26 -139 -41 -45 -44 -46 -90 -42 -27 3 -57 13 -68 23 -20 18 -20 17 -21
-11 0 -16 -8 -59 -18 -97 l-17 -68 25 -7 c14 -4 79 -7 143 -7 110 0 118 1 142
24 36 34 70 93 120 214 24 56 69 163 100 237 32 74 85 203 118 285 32 83 66
160 74 172 25 40 19 43 -86 43 l-101 0 -28 -63 c-16 -34 -55 -135 -87 -224
l-58 -162 -37 107 c-20 59 -46 132 -59 162 -12 30 -32 82 -45 115 l-23 60 -68
0 c-38 0 -85 -2 -106 -5z"/>
</g>
</svg>
